<?xml version="1.0" encoding="UTF-8" standalone="no"?>
<svg
   width="400"
   height="400"
   viewBox="0 0 400 400"
   fill="none"
   version="1.1"
   id="svg138"
   sodipodi:docname="logo-transparent.svg"
   inkscape:version="1.2.1 (9c6d41e4, 2022-07-14)"
   xmlns:inkscape="http://www.inkscape.org/namespaces/inkscape"
   xmlns:sodipodi="http://sodipodi.sourceforge.net/DTD/sodipodi-0.dtd"
   xmlns="http://www.w3.org/2000/svg"
   xmlns:svg="http://www.w3.org/2000/svg">
  <defs
     id="defs142" />
  <sodipodi:namedview
     id="namedview140"
     pagecolor="#ffffff"
     bordercolor="#000000"
     borderopacity="0.25"
     inkscape:showpageshadow="2"
     inkscape:pageopacity="0.0"
     inkscape:pagecheckerboard="0"
     inkscape:deskcolor="#d1d1d1"
     showgrid="false"
     inkscape:zoom="2.1925"
     inkscape:cx="97.833523"
     inkscape:cy="200.4561"
     inkscape:window-width="1390"
     inkscape:window-height="1027"
     inkscape:window-x="128"
     inkscape:window-y="25"
     inkscape:window-maximized="0"
     inkscape:current-layer="svg138" />
  <path
     fill-rule="evenodd"
     clip-rule="evenodd"
     d="M315.332 221.386L315.282 221.949C314.635 229.256 313.614 236.56 312.219 243.858L312.113 244.412L311.953 244.952C309.8 252.185 307.271 259.337 304.368 266.405L304.154 266.926L303.889 267.423C300.238 274.268 296.226 280.952 291.855 287.476L291.542 287.943L291.184 288.377C286.108 294.52 280.703 300.427 274.97 306.099L274.571 306.494L274.134 306.848C267.774 311.991 261.131 316.83 254.208 321.365L253.739 321.672L253.241 321.931C245.798 325.805 238.134 329.316 230.252 332.464C224.501 334.76 217.978 331.96 215.682 326.21C213.385 320.459 216.185 313.936 221.936 311.64C228.957 308.836 235.775 305.722 242.391 302.3C248.368 298.363 254.103 294.185 259.598 289.764C264.522 284.868 269.169 279.789 273.539 274.527C277.272 268.925 280.704 263.205 283.839 257.366C286.3 251.329 288.453 245.239 290.3 239.096C291.466 232.898 292.331 226.711 292.896 220.535C292.803 214.441 292.427 208.418 291.769 202.464C290.503 196.72 288.985 191.099 287.213 185.599C284.908 180.42 282.388 175.407 279.654 170.559C276.479 166.121 273.135 161.883 269.622 157.842C265.774 154.279 261.807 150.937 257.721 147.815C253.414 145.211 249.041 142.84 244.601 140.698C240.056 139.09 235.496 137.713 230.92 136.566C226.354 135.941 221.82 135.537 217.317 135.35C212.932 135.653 208.621 136.155 204.383 136.854C200.355 137.989 196.438 139.294 192.63 140.766C189.108 142.605 185.724 144.578 182.476 146.685C179.572 149.075 176.824 151.561 174.229 154.143C172.015 156.916 169.964 159.746 168.075 162.632C166.582 165.616 165.251 168.617 164.08 171.637C163.298 174.662 162.669 177.669 162.19 180.658C162.073 183.568 162.092 186.429 162.243 189.242C162.712 191.901 163.293 194.485 163.984 196.998C164.934 199.297 165.968 201.505 167.085 203.623C168.391 205.485 169.751 207.247 171.166 208.911C172.693 210.294 174.246 211.576 175.825 212.76C177.436 213.66 179.048 214.464 180.659 215.177C182.226 215.623 183.771 215.987 185.294 216.273C186.705 216.328 188.077 216.32 189.413 216.251C190.579 216.007 191.698 215.72 192.774 215.392C193.879 214.841 194.91 214.255 195.871 213.635C201.076 210.282 208.014 211.783 211.368 216.989C214.721 222.194 213.22 229.132 208.015 232.485C206.016 233.773 203.918 234.933 201.729 235.969L201.084 236.275L200.405 236.496C197.995 237.282 195.518 237.916 192.98 238.405L192.305 238.535L191.618 238.581C188.924 238.764 186.197 238.78 183.443 238.634L182.777 238.599L182.12 238.485C179.286 237.993 176.46 237.326 173.644 236.488L173.02 236.303L172.422 236.047C169.612 234.842 166.851 233.462 164.139 231.911L163.586 231.595L163.073 231.218C160.457 229.299 157.932 227.213 155.496 224.965L155.037 224.541L154.627 224.068C152.378 221.472 150.259 218.727 148.269 215.839L147.919 215.331L147.627 214.788C145.908 211.592 144.355 208.275 142.966 204.841L142.738 204.277L142.572 203.691C141.531 200.01 140.685 196.244 140.033 192.395L139.932 191.802L139.896 191.2C139.652 187.184 139.627 183.124 139.817 179.024L139.844 178.428L139.935 177.838C140.577 173.662 141.451 169.492 142.552 165.329L142.704 164.757L142.915 164.203C144.492 160.067 146.302 155.987 148.342 151.964L148.608 151.44L148.927 150.946C151.442 147.058 154.181 143.279 157.141 139.609L157.509 139.154L157.921 138.74C161.331 135.313 164.945 132.045 168.759 128.936L169.21 128.569L169.697 128.25C173.912 125.487 178.299 122.93 182.854 120.577L183.369 120.311L183.908 120.1C188.793 118.185 193.807 116.516 198.947 115.091L199.503 114.937L200.072 114.841C205.449 113.93 210.903 113.296 216.434 112.936L217.007 112.899L217.582 112.92C223.238 113.132 228.915 113.639 234.609 114.44L235.177 114.52L235.733 114.657C241.431 116.062 247.086 117.77 252.697 119.779L253.235 119.972L253.75 120.218C259.234 122.837 264.61 125.754 269.878 128.964L270.364 129.26L270.818 129.605C275.827 133.404 280.664 137.479 285.329 141.829L285.745 142.216L286.119 142.644C290.398 147.532 294.445 152.662 298.262 158.032L298.59 158.495L298.871 158.988C302.183 164.818 305.211 170.844 307.956 177.063L308.185 177.581L308.36 178.12C310.501 184.696 312.314 191.409 313.802 198.258L313.922 198.811L313.985 199.373C314.789 206.453 315.235 213.603 315.325 220.822L315.332 221.386Z"
     fill="#CD4EFF"
     id="path134" />
  <path
     fill-rule="evenodd"
     clip-rule="evenodd"
     d="M89.3798 210.158L89.2823 209.602C88.0155 202.376 87.1119 195.057 86.5699 187.646L86.5288 187.084L86.5443 186.52C86.7516 178.976 87.3434 171.414 88.3179 163.835L88.3897 163.277L88.5171 162.728C90.2723 155.172 92.4176 147.677 94.9512 140.244L95.1326 139.712L95.3664 139.2C98.6792 131.953 102.371 124.847 106.44 117.885L106.724 117.4L107.054 116.946C111.867 110.332 117.031 103.938 122.544 97.7663L122.918 97.3479L123.332 96.9688C129.519 91.3001 136.013 85.9255 142.812 80.845L143.261 80.5094L143.741 80.2203C151.112 75.7839 158.73 71.7056 166.594 67.9849C172.191 65.3366 178.875 67.727 181.523 73.324C184.171 78.921 181.781 85.6051 176.184 88.2534C169.158 91.5777 162.359 95.2079 155.785 99.1431C149.892 103.569 144.262 108.229 138.893 113.123C134.139 118.472 129.68 123.993 125.516 129.685C122.027 135.689 118.854 141.798 115.994 148.011C113.839 154.388 112.004 160.802 110.487 167.253C109.673 173.721 109.169 180.161 108.975 186.573C109.452 192.861 110.218 199.061 111.272 205.173C112.939 211.035 114.861 216.756 117.037 222.336C119.746 227.557 122.668 232.594 125.802 237.448C129.37 241.854 133.101 246.044 136.996 250.019C141.212 253.484 145.54 256.713 149.978 259.706C154.618 262.152 159.314 264.353 164.069 266.311C168.903 267.712 173.741 268.871 178.584 269.79C183.39 270.167 188.151 270.317 192.869 270.241C197.441 269.662 201.924 268.879 206.322 267.895C210.48 266.466 214.514 264.866 218.427 263.094C222.023 260.955 225.469 258.681 228.767 256.273C231.692 253.586 234.45 250.804 237.042 247.928C239.229 244.868 241.24 241.755 243.079 238.59C244.499 235.338 245.747 232.074 246.826 228.797C247.496 225.528 248.004 222.285 248.354 219.065C248.326 215.941 248.155 212.873 247.845 209.862C247.204 207.021 246.446 204.262 245.572 201.585C244.43 199.138 243.2 196.792 241.882 194.543C240.37 192.568 238.8 190.704 237.173 188.947C235.429 187.486 233.659 186.136 231.862 184.896C230.029 183.954 228.197 183.118 226.366 182.383C224.576 181.931 222.811 181.571 221.071 181.299C219.442 181.274 217.855 181.322 216.31 181.441C214.933 181.752 213.609 182.116 212.337 182.528C211.274 183.066 210.267 183.633 209.313 184.227C208.388 185.045 207.544 185.879 206.776 186.726C202.616 191.312 195.526 191.658 190.939 187.498C186.353 183.338 186.007 176.248 190.167 171.661C191.765 169.9 193.491 168.237 195.337 166.669L195.881 166.207L196.48 165.818C198.604 164.435 200.832 163.182 203.157 162.052L203.776 161.752L204.427 161.529C206.983 160.655 209.612 159.935 212.31 159.363L212.963 159.224L213.627 159.164C216.492 158.905 219.394 158.819 222.331 158.899L222.981 158.916L223.625 159.009C226.652 159.445 229.676 160.064 232.697 160.86L233.312 161.022L233.906 161.253C236.929 162.43 239.908 163.791 242.842 165.332L243.396 165.623L243.914 165.974C246.759 167.899 249.516 170.002 252.186 172.277L252.655 172.677L253.078 173.126C255.565 175.768 257.924 178.57 260.154 181.528L260.52 182.014L260.832 182.537C262.791 185.823 264.583 189.242 266.209 192.79L266.46 193.338L266.651 193.909C267.926 197.726 269.001 201.64 269.878 205.65L270.006 206.233L270.071 206.826C270.531 211.026 270.767 215.28 270.78 219.586L270.782 220.179L270.722 220.768C270.269 225.171 269.577 229.581 268.647 233.994L268.526 234.57L268.345 235.129C266.922 239.536 265.254 243.895 263.345 248.206L263.108 248.74L262.817 249.247C260.41 253.44 257.765 257.532 254.886 261.522L254.545 261.994L254.158 262.428C250.801 266.188 247.225 269.793 243.434 273.245L243.006 273.635L242.54 273.978C238.317 277.092 233.906 280.001 229.31 282.709L228.813 283.001L228.288 283.242C223.33 285.512 218.226 287.537 212.977 289.316L212.433 289.501L211.872 289.628C206.353 290.888 200.739 291.867 195.031 292.568L194.462 292.637L193.89 292.649C188.022 292.766 182.118 292.58 176.178 292.092L175.609 292.045L175.047 291.94C169.072 290.83 163.125 289.404 157.206 287.667L156.659 287.506L156.131 287.291C150.31 284.918 144.583 282.233 138.951 279.239L138.449 278.972L137.977 278.656C132.579 275.042 127.342 271.135 122.265 266.935L121.828 266.573L121.43 266.169C116.721 261.395 112.236 256.359 107.975 251.062L107.62 250.62L107.312 250.146C103.542 244.348 100.053 238.333 96.8435 232.102L96.5846 231.599L96.3776 231.073C93.7686 224.442 91.4873 217.651 89.5326 210.701L89.3798 210.158Z"
     fill="#CD4EFF"
     id="path136" />
</svg>
